<svg width="16" height="16" viewBox="0 0 16 16" fill="none" xmlns="http://www.w3.org/2000/svg">
<rect width="16" height="16" fill="#F5F5F5"/>
<g clip-path="url(#clip0_0_1)">
<rect width="1728" height="1326" transform="translate(-1577 -227)" fill="#FCFCFC"/>
<g opacity="0.1">
<g clip-path="url(#clip1_0_1)">
<rect width="1440" height="781" transform="translate(-137 -118)" fill="white"/>
<rect x="-1.58482" y="-27.5529" width="44.9681" height="44.9681" stroke="#D9D9D9" stroke-width="1.022"/>
</g>
</g>
<g clip-path="url(#clip2_0_1)">
<rect x="-1576.5" y="-50.5" width="1727" height="1282" fill="white" stroke="#E7E7E7"/>
<g filter="url(#filter0_d_0_1)">
<mask id="path-3-inside-1_0_1" fill="white">
<path d="M-258 1099L-258 -51H151L151 1099H-258Z"/>
</mask>
<path d="M-258 1099L-258 -51H151L151 1099H-258Z" fill="#FCFCFC"/>
<path d="M-258 -51V-52H-259V-51H-258ZM-257 1099L-257 -51H-259L-259 1099H-257ZM-258 -50H151V-52H-258V-50Z" fill="#E7E7E7" mask="url(#path-3-inside-1_0_1)"/>
</g>
<rect x="-46" y="-16" width="174" height="48" rx="9" fill="#DC4A2D"/>
<rect x="-46" y="-16" width="174" height="48" rx="9" stroke="#FED3CA" stroke-width="2"/>
<g clip-path="url(#clip3_0_1)">
<path d="M12 6.66668L9.33331 4.00001M1.66663 14.3333L3.92287 14.0826C4.19853 14.052 4.33636 14.0367 4.46519 13.995C4.57949 13.958 4.68826 13.9057 4.78855 13.8396C4.9016 13.765 4.99966 13.667 5.19578 13.4709L14 4.66668C14.7364 3.9303 14.7364 2.73639 14 2.00001C13.2636 1.26363 12.0697 1.26363 11.3333 2.00001L2.52911 10.8042C2.33299 11.0003 2.23493 11.0984 2.16038 11.2114C2.09425 11.3117 2.04197 11.4205 2.00497 11.5348C1.96326 11.6636 1.94795 11.8014 1.91732 12.0771L1.66663 14.3333Z" stroke="white" stroke-width="1.6" stroke-linecap="round" stroke-linejoin="round"/>
</g>
</g>
</g>
<defs>
<filter id="filter0_d_0_1" x="-262" y="-51" width="417" height="1158" filterUnits="userSpaceOnUse" color-interpolation-filters="sRGB">
<feFlood flood-opacity="0" result="BackgroundImageFix"/>
<feColorMatrix in="SourceAlpha" type="matrix" values="0 0 0 0 0 0 0 0 0 0 0 0 0 0 0 0 0 0 127 0" result="hardAlpha"/>
<feOffset dy="4"/>
<feGaussianBlur stdDeviation="2"/>
<feComposite in2="hardAlpha" operator="out"/>
<feColorMatrix type="matrix" values="0 0 0 0 0 0 0 0 0 0 0 0 0 0 0 0 0 0 0.25 0"/>
<feBlend mode="normal" in2="BackgroundImageFix" result="effect1_dropShadow_0_1"/>
<feBlend mode="normal" in="SourceGraphic" in2="effect1_dropShadow_0_1" result="shape"/>
</filter>
<clipPath id="clip0_0_1">
<rect width="1728" height="1326" fill="white" transform="translate(-1577 -227)"/>
</clipPath>
<clipPath id="clip1_0_1">
<rect width="1440" height="781" fill="white" transform="translate(-137 -118)"/>
</clipPath>
<clipPath id="clip2_0_1">
<rect width="1728" height="1152" fill="white" transform="translate(-1577 -51)"/>
</clipPath>
<clipPath id="clip3_0_1">
<rect width="16" height="16" fill="white"/>
</clipPath>
</defs>
</svg>
