<svg width="24" height="25" viewBox="0 0 24 25" fill="none" xmlns="http://www.w3.org/2000/svg">
<rect width="24" height="25" fill="#F5F5F5"/>
<g clip-path="url(#clip0_0_1)">
<rect width="1728" height="1326" transform="translate(-777 -42)" fill="#FCFCFC"/>
<g filter="url(#filter0_d_0_1)">
<rect x="-777" y="-42" width="1728" height="109" fill="white"/>
</g>
<rect x="-182.25" y="-25.25" width="538.5" height="74.5" rx="36.25" fill="white" stroke="#D1D1D1" stroke-width="0.5"/>
<path d="M3 8.3C3 6.61984 3 5.77976 3.32698 5.13803C3.6146 4.57354 4.07354 4.1146 4.63803 3.82698C5.27976 3.5 6.11984 3.5 7.8 3.5H16.2C17.8802 3.5 18.7202 3.5 19.362 3.82698C19.9265 4.1146 20.3854 4.57354 20.673 5.13803C21 5.77976 21 6.61984 21 8.3V13.7C21 15.3802 21 16.2202 20.673 16.862C20.3854 17.4265 19.9265 17.8854 19.362 18.173C18.7202 18.5 17.8802 18.5 16.2 18.5H9.68375C9.0597 18.5 8.74767 18.5 8.44921 18.5613C8.18443 18.6156 7.9282 18.7055 7.68749 18.8285C7.41617 18.9671 7.17252 19.162 6.68521 19.5518L4.29976 21.4602C3.88367 21.7931 3.67563 21.9595 3.50054 21.9597C3.34827 21.9599 3.20422 21.8906 3.10923 21.7716C3 21.6348 3 21.3684 3 20.8355V8.3Z" stroke="#B0B0B0" stroke-width="2" stroke-linecap="round" stroke-linejoin="round"/>
<circle cx="22" cy="3" r="3" fill="#DC4A2D"/>
</g>
<defs>
<filter id="filter0_d_0_1" x="-781" y="-42" width="1736" height="117" filterUnits="userSpaceOnUse" color-interpolation-filters="sRGB">
<feFlood flood-opacity="0" result="BackgroundImageFix"/>
<feColorMatrix in="SourceAlpha" type="matrix" values="0 0 0 0 0 0 0 0 0 0 0 0 0 0 0 0 0 0 127 0" result="hardAlpha"/>
<feOffset dy="4"/>
<feGaussianBlur stdDeviation="2"/>
<feComposite in2="hardAlpha" operator="out"/>
<feColorMatrix type="matrix" values="0 0 0 0 0.85098 0 0 0 0 0.85098 0 0 0 0 0.85098 0 0 0 0.1 0"/>
<feBlend mode="normal" in2="BackgroundImageFix" result="effect1_dropShadow_0_1"/>
<feBlend mode="normal" in="SourceGraphic" in2="effect1_dropShadow_0_1" result="shape"/>
</filter>
<clipPath id="clip0_0_1">
<rect width="1728" height="1326" fill="white" transform="translate(-777 -42)"/>
</clipPath>
</defs>
</svg>
